<svg width="42" height="48" viewBox="0 0 42 48" fill="none" xmlns="http://www.w3.org/2000/svg">
<path d="M21.1666 48C24.399 48 27.0209 45.3141 27.0209 42H15.3122C15.3122 45.3141 17.9342 48 21.1666 48ZM40.8785 33.9647C39.1104 32.0184 35.8021 29.0906 35.8021 19.5C35.8021 12.2156 30.8162 6.38438 24.0933 4.95375V3C24.0933 1.34344 22.7828 0 21.1666 0C19.5504 0 18.2398 1.34344 18.2398 3V4.95375C11.517 6.38438 6.53108 12.2156 6.53108 19.5C6.53108 29.0906 3.22271 32.0184 1.45459 33.9647C0.905489 34.5694 0.662052 35.2922 0.666628 36C0.676695 37.5375 1.85453 39 3.60434 39H38.7288C40.4786 39 41.6574 37.5375 41.6665 36C41.6711 35.2922 41.4276 34.5684 40.8785 33.9647Z" fill="#00D3D4"/>
</svg>
